<?xml version="1.0"?>
<svg xmlns="http://www.w3.org/2000/svg" width="121" height="26" viewBox="0 0 121 26" fill="none">
<g clip-path="url(#clip0)">
<g clip-path="url(#clip1)">
<path d="M46.8178 11.0788V0.322479H51.4062V24.9164H46.8178V23.5273C46.6891 23.5901 46.637 23.6017 46.603 23.6336C44.882 25.2344 42.8314 25.6364 40.6223 25.0993C37.709 24.392 35.9562 22.4158 35.2362 19.577C34.5054 16.6967 34.9968 14.0122 36.9677 11.6989C39.0407 9.26534 42.6974 8.57609 45.4298 10.1024C45.8861 10.3566 46.2924 10.7044 46.8178 11.0788ZM46.9699 17.5125C46.9731 16.7265 46.8753 16.1299 46.637 15.5725C46.0775 14.2632 45.0947 13.4634 43.6674 13.3092C42.3209 13.1635 41.1743 13.6112 40.3617 14.7163C39.4044 16.0182 39.2927 17.4636 39.8384 18.9537C40.5914 21.0097 42.9728 21.9319 44.9182 20.9246C46.3647 20.1769 46.8965 18.8814 46.9699 17.5125Z" fill="white"/>
<path d="M27.2299 11.0619V9.69408H31.7832L31.8374 24.9261L27.2543 24.9548C27.2543 24.9548 27.2543 24.0305 27.2543 23.4902C26.0314 24.4449 24.8408 25.1639 23.2413 25.2824C19.5144 25.5557 16.7916 23.1254 15.8705 20.2653C14.8686 17.1522 15.2611 14.2336 17.4202 11.6831C19.4729 9.26017 23.119 8.58265 25.8365 10.0876C26.3087 10.3482 26.7257 10.7056 27.2299 11.0619ZM20.2834 18.9614C20.8131 20.3324 21.8331 21.1492 23.3051 21.296C24.7421 21.4396 25.9078 20.9067 26.7246 19.692C27.7266 18.2019 27.6096 15.9566 26.4694 14.5686C25.0782 12.8732 22.3787 12.8466 20.9503 14.5122C19.829 15.8204 19.6856 17.4063 20.2834 18.9614Z" fill="white"/>
<path d="M98.4278 21.2406H103.866V24.9132H88.3596V21.2406H93.7574V4.02603H88.3596V0.376251H98.4278V21.2406Z" fill="white"/>
<path d="M108.819 18.4755C108.985 20.3746 110.632 21.7042 112.499 21.7197C113.773 21.7302 115.076 21.2793 115.666 20.0863H119.794C119.637 20.5341 119.536 20.9478 119.353 21.3212C118.042 24.0127 115.152 25.4151 112.232 25.3352C107.886 25.2161 104.496 21.725 104.5 17.3324C104.503 13.0901 107.903 9.38675 112.232 9.3045C114.354 9.26399 116.212 10.013 117.583 11.3196C119.498 13.1446 120.254 15.889 120.032 18.4755H108.819ZM115.573 15.5926C115.455 14.1452 113.828 13.084 112.499 13.0535C110.901 13.0169 109.465 14.0797 108.992 15.5926H115.573Z" fill="white"/>
<path d="M87.3713 15.427H82.7628C82.7628 15.427 82.0663 13.3153 79.6842 13.3153C77.4748 13.3669 76.1299 15.3495 76.1263 17.3994C76.1228 19.3665 77.5677 21.2293 79.6145 21.2887C81.209 21.3349 82.2866 20.3856 82.7971 19.1858H87.4014C86.9669 22.8927 83.2253 25.3583 79.6842 25.3173C75.3016 25.2666 71.5424 21.7145 71.5618 17.28C71.5811 12.8473 75.3306 9.32659 79.6842 9.29037C83.281 9.29036 87.0508 11.7853 87.3713 15.427Z" fill="white"/>
<path d="M60.513 13.3591H55.1663V9.69287H65.2296V21.2362H70.6003V24.9163H55.1663V21.2362H60.513V13.3591Z" fill="white"/>
<path d="M13.0399 9.69093V13.371H5.29151V24.89H0.66906V9.69093H13.0399Z" fill="white"/>
<path d="M62.4703 6.06708C60.7569 6.0703 59.4197 4.74928 59.4229 3.05814C59.4261 1.39784 60.7548 0.0747108 62.4328 0.0608838C64.1445 0.0470569 65.4949 1.36168 65.5023 3.0475C65.5108 4.74715 64.1878 6.06391 62.4703 6.06708Z" fill="white"/>
</g>
</g>
<defs>
<clipPath id="clip0">
<rect width="120.005" height="25.1758" fill="white" transform="translate(0.497719 0.246918)"/>
</clipPath>
<clipPath id="clip1">
<rect width="119.662" height="31.6173" fill="white" transform="translate(0.66906 -3.10907)"/>
</clipPath>
</defs>
</svg>
